<svg width="30" height="30" viewBox="0 0 30 30" fill="none" xmlns="http://www.w3.org/2000/svg">
<path fill-rule="evenodd" clip-rule="evenodd" d="M15 22.5C18.6244 22.5 21.5625 19.5619 21.5625 15.9375V6.5625C21.5625 2.93813 18.6244 0 15 0C11.3756 0 8.4375 2.93813 8.4375 6.5625V15.9375C8.4375 19.5619 11.3756 22.5 15 22.5ZM25.3125 17.8125H23.4375C22.5834 21.5691 19.0144 24.375 15 24.375C10.9856 24.375 7.41656 21.5691 6.5625 17.8125H4.6875C5.51531 22.3116 9.43406 25.7906 14.0625 26.2078V28.125H13.125C12.6075 28.125 12.1875 28.545 12.1875 29.0625C12.1875 29.5809 12.6075 30 13.125 30H16.875C17.3925 30 17.8125 29.5809 17.8125 29.0625C17.8125 28.545 17.3925 28.125 16.875 28.125H15.9375V26.2078C20.5659 25.7906 24.4847 22.3116 25.3125 17.8125Z" fill="#F0F0F0"/>
</svg>
