<svg width="30" height="30" viewBox="0 0 30 30" fill="none" xmlns="http://www.w3.org/2000/svg">
<path d="M15.9902 8.6338L10.6553 12.6416C10.6201 12.668 10.5967 12.7031 10.5762 12.7383H7.5V17.2647H10.5762C10.5967 17.2998 10.623 17.335 10.6553 17.3613L15.9902 21.3662C16.2012 21.5244 16.5029 21.375 16.5029 21.1113V8.89162C16.5029 8.62794 16.2012 8.4756 15.9902 8.6338ZM19.5703 20.2647C19.3125 20.2647 19.0605 20.1328 18.9199 19.8926C18.7119 19.5352 18.832 19.0752 19.1895 18.8672C19.2598 18.8262 20.9971 17.7422 20.9971 15C20.9971 12.2168 19.207 11.1445 19.1895 11.1328C18.832 10.9248 18.7119 10.4649 18.9199 10.1074C19.1279 9.75001 19.5879 9.6299 19.9453 9.8379C20.0537 9.8965 22.5 11.3672 22.5 15C22.5 18.6328 20.0537 20.1035 19.9482 20.1621C19.8281 20.2324 19.6992 20.2647 19.5703 20.2647Z" fill="#1C274C"/>
<path d="M17.9653 18.1992C17.7075 18.1992 17.4555 18.0673 17.3178 17.8271C17.1098 17.4697 17.2299 17.0097 17.5873 16.8017C17.6079 16.79 18.3081 16.333 18.3081 15.1875C18.3081 14.042 17.6079 13.5849 17.5756 13.5644C17.2299 13.3476 17.1157 12.8877 17.3295 12.539C17.5405 12.1875 17.9887 12.0703 18.3432 12.2753C18.4018 12.3105 19.8081 13.1513 19.8081 15.1875C19.8081 17.2236 18.4018 18.0644 18.3432 18.0996C18.2231 18.167 18.0942 18.1992 17.9653 18.1992Z" fill="#1C274C"/>
</svg>
