<svg width="30" height="30" viewBox="0 0 30 30" fill="none" xmlns="http://www.w3.org/2000/svg">
<g clip-path="url(#clip0_264_767)">
<rect width="30" height="30" fill="black" fill-opacity="0.2"/>
<path d="M5.55033 22.59C5.55033 23.11 5.73033 23.55 6.09033 23.91C6.45033 24.27 6.90033 24.46 7.44033 24.48H22.5603C23.0803 24.48 23.5303 24.29 23.9103 23.91C24.2903 23.53 24.4703 23.09 24.4503 22.59V7.43996C24.4503 6.91996 24.2703 6.46996 23.9103 6.08996C23.5503 5.70996 23.1003 5.52996 22.5603 5.54996H7.44033C6.92033 5.54996 6.47033 5.72996 6.09033 6.08996C5.71033 6.44996 5.53033 6.89996 5.55033 7.43996V22.59Z" fill="#F0F0F0"/>
<circle cx="20" cy="12" r="50" fill="#D9D9D9"/>
</g>
<defs>
<clipPath id="clip0_264_767">
<rect width="30" height="30" fill="white"/>
</clipPath>
</defs>
</svg>
