<svg width="30" height="43" viewBox="0 0 30 43" fill="none" xmlns="http://www.w3.org/2000/svg">
<path d="M20.5822 19.4006C21.4929 19.0835 22.1936 18.7235 22.6307 18.3656C22.9307 18.1214 23.025 17.9606 23.025 17.8964C23.025 17.8321 22.9307 17.6714 22.6307 17.4249C22.1936 17.0692 21.495 16.7092 20.5822 16.3921C18.585 15.6999 15.8207 15.2949 12.8572 15.2949C9.89358 15.2949 7.12929 15.7021 5.13215 16.3921C4.22144 16.7092 3.52072 17.0692 3.08358 17.4271C2.78358 17.6714 2.68929 17.8299 2.68929 17.8964C2.68929 17.9606 2.78358 18.1214 3.08358 18.3678C3.52072 18.7235 4.21929 19.0835 5.13215 19.4006C7.12929 20.0928 9.89358 20.4978 12.8572 20.4978C15.8207 20.4978 18.585 20.0906 20.5822 19.4006ZM2.03572 26.6156V30.3892C3.14787 31.5614 6.13929 32.9885 9.79287 33.4149C15.15 34.0385 20.2222 32.8685 23.6657 30.5349L23.6786 26.6778C20.01 28.8356 14.8457 29.7421 9.62358 29.1314C6.39001 28.7564 3.63644 27.7814 2.03358 26.6156H2.03572ZM2.03572 24.2585C3.15001 25.4285 6.13929 26.8556 9.79287 27.2799C15.1607 27.9056 20.2436 26.7314 23.6872 24.3871L23.7022 20.1099C21.51 21.3956 17.475 22.2571 12.8572 22.2571C8.25858 22.2571 4.23644 21.3999 2.04215 20.1249C2.03927 21.5021 2.03713 22.8792 2.03572 24.2564V24.2585ZM2.04001 32.7506L2.04858 35.9178L2.01644 35.6992C2.67215 37.8678 6.85929 39.6099 13.095 39.6099C16.4914 39.6099 19.1529 39.0956 21.1993 38.0842C21.7736 37.7992 22.2107 37.5592 22.6393 37.2464C22.9243 37.0385 23.1107 36.9121 23.4172 36.6421C23.7343 36.3614 24.2229 36.4299 24.5057 36.7492C24.7864 37.0642 24.8229 37.5785 24.5057 37.8614C24.1629 38.1614 24.0022 38.2964 23.6679 38.5406C23.1686 38.9049 22.6007 39.2842 21.945 39.6099C19.6864 40.7264 17.385 41.3928 13.095 41.3928C5.94858 41.3928 1.22358 39.1321 0.319294 36.1428L0.287152 36.0356V35.9242L0.274294 31.4006C0.269177 26.9506 0.272748 22.5006 0.285009 18.0506C0.279576 17.9994 0.276716 17.9479 0.276437 17.8964C0.27858 15.4878 5.91001 13.5356 12.8572 13.5356C19.8043 13.5356 25.4357 15.4878 25.4357 17.8964C25.4364 17.9905 25.4285 18.0844 25.4122 18.1771C25.4328 18.2444 25.4429 18.3145 25.4422 18.3849L25.3929 33.6314C25.3907 34.0556 25.0007 34.3985 24.5207 34.3964C24.0407 34.3964 23.6529 34.0514 23.655 33.6249V32.8235C19.9907 34.9685 14.835 35.8728 9.62358 35.2664C6.39429 34.8892 3.64072 33.9164 2.03787 32.7506H2.04001ZM21.6257 24.2264C21.426 24.2281 21.2338 24.1505 21.0912 24.0107C20.9486 23.871 20.8673 23.6803 20.865 23.4806C20.865 23.0692 21.2079 22.7371 21.6279 22.7371C22.0479 22.7371 22.3907 23.0692 22.3907 23.4806C22.3907 23.8942 22.0479 24.2264 21.6279 24.2264H21.6257ZM21.6257 30.3614C21.426 30.3631 21.2338 30.2855 21.0912 30.1457C20.9486 30.006 20.8673 29.8153 20.865 29.6156C20.865 29.2042 21.2079 28.8699 21.6279 28.8699C22.0479 28.8699 22.3907 29.2042 22.3907 29.6156C22.3907 30.0271 22.0479 30.3614 21.6279 30.3614H21.6257ZM21.6257 36.5756C21.5267 36.5765 21.4284 36.5578 21.3366 36.5207C21.2447 36.4836 21.1611 36.4287 21.0905 36.3593C21.0198 36.2898 20.9636 36.2071 20.9249 36.116C20.8862 36.0248 20.8659 35.9268 20.865 35.8278C20.865 35.4164 21.2079 35.0821 21.6279 35.0821C22.0479 35.0821 22.3907 35.4164 22.3907 35.8278C22.3907 36.2392 22.0479 36.5735 21.6279 36.5735L21.6257 36.5756Z" fill="#1C274C"/>
<g clip-path="url(#clip0_166_63)">
<path d="M18 6.66658H17.1666V4.99992C17.1666 2.69992 15.3 0.833252 13 0.833252C10.7 0.833252 8.83331 2.69992 8.83331 4.99992V6.66658H7.99998C7.08331 6.66658 6.33331 7.41658 6.33331 8.33325V16.6666C6.33331 17.5833 7.08331 18.3333 7.99998 18.3333H18C18.9166 18.3333 19.6666 17.5833 19.6666 16.6666V8.33325C19.6666 7.41658 18.9166 6.66658 18 6.66658ZM13 14.1666C12.0833 14.1666 11.3333 13.4166 11.3333 12.4999C11.3333 11.5833 12.0833 10.8333 13 10.8333C13.9166 10.8333 14.6666 11.5833 14.6666 12.4999C14.6666 13.4166 13.9166 14.1666 13 14.1666ZM15.5833 6.66658H10.4166V4.99992C10.4166 3.57492 11.575 2.41659 13 2.41659C14.425 2.41659 15.5833 3.57492 15.5833 4.99992V6.66658Z" fill="#1C274C"/>
</g>
<defs>
<clipPath id="clip0_166_63">
<rect width="20" height="20" fill="white" transform="translate(3)"/>
</clipPath>
</defs>
</svg>
