<svg width="60" height="60" viewBox="0 0 60 60" fill="none" xmlns="http://www.w3.org/2000/svg">
<g clip-path="url(#clip0_259_2)">
<path d="M30 59.5C46.2924 59.5 59.5 46.2924 59.5 30C59.5 13.7076 46.2924 0.5 30 0.5C13.7076 0.5 0.5 13.7076 0.5 30C0.5 46.2924 13.7076 59.5 30 59.5Z" fill="white" stroke="#1C274C"/>
<path d="M27.164 49.702C23.1364 47.8195 19.8013 44.2291 17.4698 39.9362C15.1394 35.6451 13.8333 30.6906 13.8333 26.1319C13.8333 17.03 21.0797 9.66669 30 9.66669C38.9203 9.66669 46.1665 17.03 46.1665 26.1319C46.1665 30.6906 44.8606 35.6451 42.5301 39.9362C40.1987 44.2291 36.8636 47.8195 32.836 49.702C31.0357 50.5437 28.9644 50.5437 27.164 49.702ZM30 34.6667C34.8784 34.6667 38.8333 30.7118 38.8333 25.8333C38.8333 20.9548 34.8784 17 30 17C25.1215 17 21.1666 20.9548 21.1666 25.8333C21.1666 30.7118 25.1215 34.6667 30 34.6667Z" fill="#D9D9D9" stroke="#1C274C"/>
<path fill-rule="evenodd" clip-rule="evenodd" d="M30 34.1667C34.6023 34.1667 38.3334 30.4356 38.3334 25.8333C38.3334 21.231 34.6023 17.5 30 17.5C25.3976 17.5 21.6667 21.231 21.6667 25.8333C21.6667 30.4356 25.3976 34.1667 30 34.1667ZM31.5625 22.7083C31.5625 21.8454 30.8629 21.1458 30 21.1458C29.1371 21.1458 28.4375 21.8454 28.4375 22.7083V24.2708H26.875C26.0121 24.2708 25.3125 24.9704 25.3125 25.8333C25.3125 26.6963 26.0121 27.3958 26.875 27.3958H28.4375V28.9583C28.4375 29.8213 29.1371 30.5208 30 30.5208C30.8629 30.5208 31.5625 29.8213 31.5625 28.9583V27.3958H33.125C33.9879 27.3958 34.6875 26.6963 34.6875 25.8333C34.6875 24.9704 33.9879 24.2708 33.125 24.2708H31.5625V22.7083Z" fill="#1C274C"/>
</g>
<defs>
<clipPath id="clip0_259_2">
<rect width="60" height="60" fill="white"/>
</clipPath>
</defs>
</svg>
