<svg width="24" height="24" viewBox="0 0 24 24" fill="none" xmlns="http://www.w3.org/2000/svg">
<path d="M13.3729 18.75C13.8804 20.055 14.6296 21.3117 15.3546 22.375H3.04167C1.7125 22.375 0.625 21.2996 0.625 19.9583V3.04167C0.625 1.7125 1.7125 0.625 3.04167 0.625H19.9583C21.2875 0.625 22.375 1.70042 22.375 3.04167V9.84458C21.4687 9.36125 20.4296 9.08333 19.3542 9.08333C16.6838 9.08333 14.3154 10.7629 13.2762 13.1071L10.2917 16.9375L7.27083 13.3125L3.04167 18.75H13.3729ZM23.5833 15.7292C23.5833 18.8708 19.3542 23.5833 19.3542 23.5833C19.3542 23.5833 15.125 18.8708 15.125 15.7292C15.125 13.4333 17.0583 11.5 19.3542 11.5C21.65 11.5 23.5833 13.4333 23.5833 15.7292ZM20.8042 15.85C20.8042 15.125 20.0792 14.4 19.3542 14.4C18.6292 14.4 17.9042 15.0042 17.9042 15.85C17.9042 16.575 18.5083 17.3 19.3542 17.3C20.2 17.3 20.925 16.575 20.8042 15.85Z" fill="#1C274C"/>
</svg>
