<svg width="26" height="24" viewBox="0 0 26 24" fill="none" xmlns="http://www.w3.org/2000/svg">
<path d="M19.25 13.9167H21.75V17.5417H25.5V19.9583H21.75V23.5833H19.25V19.9583H15.5V17.5417H19.25V13.9167ZM23 10.2917V6.66667H3V10.2917H23ZM14.25 12.7083V14.7383C13.4625 15.8863 13 17.2638 13 18.75C13 20.0671 13.3625 21.3117 14 22.375H3C2.33696 22.375 1.70107 22.1204 1.23223 21.6672C0.763392 21.214 0.5 20.5993 0.5 19.9583V0.625L2.5875 2.64292L4.6625 0.625L6.75 2.64292L8.8375 0.625L10.9125 2.64292L13 0.625L15.0875 2.64292L17.1625 0.625L19.25 2.64292L21.3375 0.625L23.4125 2.64292L25.5 0.625V13.3125C24.1625 12.2008 22.4125 11.5 20.5 11.5C18.9625 11.5 17.5375 11.9471 16.35 12.7083H14.25ZM11.75 19.9583V12.7083H3V19.9583H11.75Z" fill="#1C274C"/>
</svg>
