<svg width="29" height="29" viewBox="0 0 29 29" fill="none" xmlns="http://www.w3.org/2000/svg">
<path d="M14.5 24.4C11.0625 24.4 8.02375 22.64 6.25 20C6.29125 17.25 11.75 15.7375 14.5 15.7375C17.25 15.7375 22.7087 17.25 22.75 20C20.9762 22.64 17.9375 24.4 14.5 24.4ZM14.5 4.875C15.594 4.875 16.6432 5.3096 17.4168 6.08318C18.1904 6.85677 18.625 7.90598 18.625 9C18.625 10.094 18.1904 11.1432 17.4168 11.9168C16.6432 12.6904 15.594 13.125 14.5 13.125C13.406 13.125 12.3568 12.6904 11.5832 11.9168C10.8096 11.1432 10.375 10.094 10.375 9C10.375 7.90598 10.8096 6.85677 11.5832 6.08318C12.3568 5.3096 13.406 4.875 14.5 4.875ZM14.5 0.75C12.6943 0.75 10.9063 1.10565 9.2381 1.79666C7.56988 2.48766 6.05409 3.50048 4.77728 4.77728C2.19866 7.35591 0.75 10.8533 0.75 14.5C0.75 18.1467 2.19866 21.6441 4.77728 24.2227C6.05409 25.4995 7.56988 26.5123 9.2381 27.2033C10.9063 27.8943 12.6943 28.25 14.5 28.25C18.1467 28.25 21.6441 26.8013 24.2227 24.2227C26.8013 21.6441 28.25 18.1467 28.25 14.5C28.25 6.89625 22.0625 0.75 14.5 0.75Z" fill="#1C274C"/>
</svg>
