<svg width="26" height="26" viewBox="0 0 26 26" fill="none" xmlns="http://www.w3.org/2000/svg">
<path d="M23.25 5.75H0.75V0.75H23.25V5.75ZM8.425 21.6875C8.65 22.2375 8.925 22.7625 9.225 23.25H2V7H22V13.9375C20.825 13.4875 19.5625 13.25 18.25 13.25C13.875 13.25 10.0375 15.825 8.425 19.8125L8.0625 20.75L8.425 21.6875ZM8.25 13.25H15.75V11.375C15.75 11.025 15.475 10.75 15.125 10.75H8.875C8.525 10.75 8.25 11.025 8.25 11.375V13.25ZM18.25 19.5C17.55 19.5 17 20.05 17 20.75C17 21.45 17.55 22 18.25 22C18.95 22 19.5 21.45 19.5 20.75C19.5 20.05 18.95 19.5 18.25 19.5ZM25.75 20.75C24.575 23.675 21.6625 25.75 18.25 25.75C14.8375 25.75 11.925 23.675 10.75 20.75C11.925 17.825 14.8375 15.75 18.25 15.75C21.6625 15.75 24.575 17.825 25.75 20.75ZM21.375 20.75C21.375 19.025 19.975 17.625 18.25 17.625C16.525 17.625 15.125 19.025 15.125 20.75C15.125 22.475 16.525 23.875 18.25 23.875C19.975 23.875 21.375 22.475 21.375 20.75Z" fill="#1C274C"/>
</svg>
