<svg width="26" height="27" viewBox="0 0 26 27" fill="none" xmlns="http://www.w3.org/2000/svg">
<path d="M19.3571 1.92857L17.1429 0L14.9286 1.92857L12.7143 0L10.5 1.92857L8.28571 0L6.07143 1.92857L3.85714 0L1.64286 1.92857L-0.571429 0L-2.78571 1.92857L-5 0V25.7143L-2.78571 23.7857L-0.571429 25.7143L1.64286 23.7857L3.85714 25.7143L6.07143 23.7857L8.28571 25.7143V21.9729H-2.04762V3.74143H18.619V14.4771L21.5714 15.7629V0L19.3571 1.92857ZM11.2381 27V21.8571L17.1429 20.5714L11.2381 19.2857V14.1429L26 20.5714L11.2381 27ZM8.28571 11.5714V14.1429H-0.571429V11.5714H8.28571ZM-0.571429 19.2857V16.7143H8.28571V19.2857H-0.571429ZM17.1429 6.42857V9H-0.571429V6.42857H17.1429Z" fill="#1C274C"/>
</svg>
