<svg width="128" height="106" viewBox="0 0 128 106" fill="none" xmlns="http://www.w3.org/2000/svg">
<g clip-path="url(#clip0_30_30)">
<path d="M69.3217 31.34C74.8496 31.34 79.3307 27.629 79.3307 23.0513C79.3307 18.4736 74.8496 14.7626 69.3217 14.7626C63.7939 14.7626 59.3127 18.4736 59.3127 23.0513C59.3127 27.629 63.7939 31.34 69.3217 31.34Z" fill="#CEE8FA"/>
<path d="M69.3225 34.378C61.7808 34.378 55.6453 29.297 55.6453 23.0515C55.6453 16.806 61.7808 11.7252 69.3225 11.7252C76.8643 11.7252 82.9995 16.8062 82.9995 23.0515C82.9995 29.2968 76.8638 34.378 69.3225 34.378ZM69.3225 17.7993C65.8258 17.7993 62.9805 20.1553 62.9805 23.0511C62.9805 25.947 65.8255 28.303 69.3225 28.303C72.8195 28.303 75.6643 25.947 75.6643 23.0511C75.6643 20.1553 72.8193 17.7993 69.3225 17.7993Z" fill="#2D527C"/>
<path d="M26.2922 26.9586H3.66748V102.127H26.2922V26.9586Z" fill="#CEE8FA"/>
<path d="M14.98 71.2233C12.9542 71.2233 11.3125 69.8633 11.3125 68.186V60.8997C11.3125 59.2225 12.9545 57.8623 14.98 57.8623C17.0055 57.8623 18.6475 59.2223 18.6475 60.8997V68.186C18.6477 69.8633 17.0057 71.2233 14.98 71.2233Z" fill="#2D527C"/>
<path d="M124.332 23.9206H96.0368C96.0525 23.6063 96.066 23.2923 96.066 22.9817C96.066 10.7696 84.0687 0.834335 69.322 0.834335C63.5855 0.834335 58.1155 2.31689 53.5042 5.12175C51.8715 6.11487 51.52 8.01563 52.7195 9.36754C53.919 10.7195 56.2145 11.0101 57.8465 10.0174C61.1903 7.98375 65.1588 6.90884 69.322 6.90884C80.0242 6.90884 88.7308 14.1189 88.7308 22.9817C88.7308 27.9403 86.012 33.7958 80.65 40.386C80.1715 40.9744 79.9778 41.6514 80.0368 42.3079C80.031 42.3783 80.024 42.4489 80.024 42.5207C80.024 44.1979 81.6663 45.5578 83.6917 45.5578H108.239C110.264 45.5578 111.906 44.1979 111.906 42.5207V29.9951H120.665V99.0908H101.982V70.7811C101.982 69.1039 100.34 67.7439 98.3145 67.7439H72.587V57.6768C73.588 56.8787 75.4572 55.3417 77.729 53.2534C79.0845 52.0069 78.964 50.0864 77.459 48.9639C75.954 47.8414 73.6353 47.9412 72.2793 49.1875C71.1735 50.2038 70.1667 51.0825 69.3288 51.7928C63.598 46.9193 49.9142 34.115 49.9142 22.9821C49.9142 21.305 48.2722 19.945 46.2465 19.945C44.221 19.945 42.579 21.305 42.579 22.9821C42.579 23.2976 42.59 23.6138 42.6065 23.9303C42.532 23.9266 42.458 23.921 42.3825 23.921H26.2925H3.6675C1.64175 23.921 0 25.281 0 26.9582V102.128C0 103.805 1.642 105.166 3.6675 105.166H26.2922H79.332C81.3573 105.166 82.9995 103.806 82.9995 102.128C82.9995 100.451 81.3573 99.0912 79.332 99.0912H29.96V29.9951H38.7142V70.7809C38.7142 72.458 40.3563 73.8182 42.382 73.8182H65.2517V88.0549C65.2517 89.7321 66.894 91.0923 68.9195 91.0923C70.945 91.0923 72.587 89.7323 72.587 88.0549V73.8182H94.6468V102.128C94.6468 103.805 96.289 105.165 98.3142 105.165H124.332C126.358 105.165 128 103.805 128 102.128V26.958C128 25.2804 126.358 23.9206 124.332 23.9206ZM104.571 39.4836H89.9485C92.197 36.1841 93.826 33.0163 94.8363 29.9951H104.571L104.571 39.4836ZM22.6248 99.0908H7.33525V29.9951H22.6248V99.0908ZM46.0493 67.7435V35.0761C51.374 45.0653 61.351 53.8271 65.2515 57.0239V67.7433L46.0493 67.7435Z" fill="#2D527C"/>
</g>
<defs>
<clipPath id="clip0_30_30">
<rect width="128" height="106" fill="white"/>
</clipPath>
</defs>
</svg>
