<svg width="30" height="30" viewBox="0 0 30 30" fill="none" xmlns="http://www.w3.org/2000/svg">
<path d="M25.3374 20.3312L26.2193 15.2315C26.4395 13.9578 25.46 12.7928 24.1687 12.7928H17.6924C17.0505 12.7928 16.5618 12.2166 16.6656 11.5825L17.494 6.52678C17.6285 5.70544 17.5901 4.865 17.3811 4.0594C17.208 3.39205 16.6931 2.85619 16.016 2.63867L15.8348 2.58044C15.4255 2.44898 14.9789 2.47957 14.593 2.66549C14.1684 2.87014 13.8576 3.24341 13.7425 3.68736L13.1479 5.97968C12.9586 6.70904 12.6831 7.41306 12.3277 8.07828C11.8085 9.05021 11.0058 9.82808 10.1714 10.5471L8.37298 12.0969C7.8659 12.5339 7.5996 13.1883 7.6573 13.8555L8.67252 25.5964C8.76563 26.6733 9.666 27.5 10.7457 27.5H16.5565C20.9081 27.5 24.6219 24.468 25.3374 20.3312Z" fill="#1C274C" fill-opacity="0.8"/>
<path fill-rule="evenodd" clip-rule="evenodd" d="M3.70959 11.8564C4.21116 11.8347 4.64076 12.212 4.68401 12.7123L5.89851 26.7579C5.97652 27.6601 5.26585 28.4378 4.35839 28.4378C3.50361 28.4378 2.8125 27.7443 2.8125 26.8911V12.793C2.8125 12.2909 3.208 11.878 3.70959 11.8564Z" fill="#1C274C" fill-opacity="0.8"/>
</svg>
