<svg width="34" height="30" viewBox="0 0 34 30" fill="none" xmlns="http://www.w3.org/2000/svg">
<g clip-path="url(#clip0_117_19)">
<path d="M16.9998 10C13.869 10 11.3332 12.2375 11.3332 15C11.3332 17.7625 13.869 20 16.9998 20C20.1307 20 22.6665 17.7625 22.6665 15C22.6665 12.2375 20.1307 10 16.9998 10ZM29.6648 13.75C29.0132 8.5375 24.324 4.4 18.4165 3.825V1.25H15.5832V3.825C9.67567 4.4 4.9865 8.5375 4.33484 13.75H1.4165V16.25H4.33484C4.9865 21.4625 9.67567 25.6 15.5832 26.175V28.75H18.4165V26.175C24.324 25.6 29.0132 21.4625 29.6648 16.25H32.5832V13.75H29.6648ZM16.9998 23.75C11.5173 23.75 7.08317 19.8375 7.08317 15C7.08317 10.1625 11.5173 6.25 16.9998 6.25C22.4823 6.25 26.9165 10.1625 26.9165 15C26.9165 19.8375 22.4823 23.75 16.9998 23.75Z" fill="white"/>
</g>
<defs>
<clipPath id="clip0_117_19">
<rect width="34" height="30" fill="white"/>
</clipPath>
</defs>
</svg>
