<svg width="40" height="40" viewBox="0 0 40 40" fill="none" xmlns="http://www.w3.org/2000/svg">
<path d="M28.4337 8.1748C28.6627 8.17579 28.8864 8.24306 29.0779 8.36848C29.2704 8.49921 29.4209 8.68269 29.5116 8.8969L33.2506 17.6085C33.3165 17.7612 33.3488 17.9264 33.3453 18.0927V18.1032C33.3453 19.4059 32.8278 20.6551 31.9067 21.5762C30.9856 22.4973 29.7364 23.0148 28.4337 23.0148C27.1311 23.0148 25.8818 22.4973 24.9607 21.5762C24.0396 20.6551 23.5222 19.4059 23.5222 18.1032V18.0927C23.5187 17.9264 23.551 17.7612 23.6169 17.6085L26.6632 10.5095H21.2169V26.379L29.4653 29.798C29.7148 29.9011 29.9209 30.0876 30.0482 30.3256C30.1756 30.5637 30.2164 30.8385 30.1638 31.1033C30.1111 31.3681 29.9682 31.6065 29.7594 31.7777C29.5507 31.9489 29.289 32.0424 29.019 32.0422H11.1622C10.8922 32.0424 10.6305 31.9489 10.4217 31.7777C10.213 31.6065 10.0701 31.3681 10.0174 31.1033C9.96473 30.8385 10.0056 30.5637 10.1329 30.3256C10.2603 30.0876 10.4663 29.9011 10.7158 29.798L18.8843 26.4127V10.5095H13.3369L16.3832 17.6085C16.4491 17.7612 16.4814 17.9264 16.4779 18.0927V18.1032C16.4779 19.4059 15.9605 20.6551 15.0394 21.5762C14.1183 22.4973 12.869 23.0148 11.5664 23.0148C10.2637 23.0148 9.01446 22.4973 8.09336 21.5762C7.17226 20.6551 6.65479 19.4059 6.65479 18.1032V18.0927C6.65135 17.9264 6.68365 17.7612 6.74953 17.6085L10.4885 8.8969C10.578 8.68257 10.7289 8.49947 10.9222 8.37059C11.113 8.24341 11.3371 8.17531 11.5664 8.1748H18.8843V6.74322C18.8843 6.43389 19.0071 6.13724 19.2259 5.91851C19.4446 5.69978 19.7413 5.5769 20.0506 5.5769C20.3599 5.5769 20.6566 5.69978 20.8753 5.91851C21.094 6.13724 21.2169 6.43389 21.2169 6.74322V8.1748H28.4337ZM14.0569 18.1053L11.5664 12.3011L9.07795 18.1032L14.0569 18.1053ZM30.9243 18.1053L28.4337 12.3032L25.9432 18.1053H30.9243Z" fill="#1C274C"/>
</svg>
