<svg width="316" height="409" viewBox="0 0 316 409" fill="none" xmlns="http://www.w3.org/2000/svg">
<g filter="url(#filter0_d_94_26)">
<path d="M183.587 372.252L183.799 372.705L183.587 372.252C172.423 377.471 159.577 377.471 148.413 372.252L148.201 372.705L148.413 372.252C124.301 360.982 104.487 339.572 90.6975 314.182C76.9093 288.795 69.1667 259.466 69.1667 232.41C69.1667 177.959 112.529 133.833 166 133.833C219.472 133.833 262.833 177.959 262.833 232.41C262.833 259.466 255.091 288.795 241.303 314.182C227.514 339.572 207.7 360.982 183.587 372.252ZM166 279.833C193.154 279.833 215.167 257.82 215.167 230.667C215.167 203.513 193.154 181.5 166 181.5C138.846 181.5 116.833 203.513 116.833 230.667C116.833 257.82 138.846 279.833 166 279.833Z" fill="#D9D9D9" stroke="#1C274C"/>
<path fill-rule="evenodd" clip-rule="evenodd" d="M166 279.333C192.877 279.333 214.667 257.544 214.667 230.667C214.667 203.789 192.877 182 166 182C139.122 182 117.333 203.789 117.333 230.667C117.333 257.544 139.122 279.333 166 279.333ZM175.125 212.417C175.125 207.377 171.039 203.292 166 203.292C160.96 203.292 156.875 207.377 156.875 212.417V221.542H147.75C142.71 221.542 138.625 225.627 138.625 230.667C138.625 235.706 142.71 239.792 147.75 239.792H156.875V248.917C156.875 253.956 160.96 258.042 166 258.042C171.039 258.042 175.125 253.956 175.125 248.917V239.792H184.25C189.289 239.792 193.375 235.706 193.375 230.667C193.375 225.627 189.289 221.542 184.25 221.542H175.125V212.417Z" fill="#1C274C"/>
<g clip-path="url(#clip0_94_26)">
<path d="M103.833 90.75V91.6173L104.692 91.7399C139.753 96.7487 164.742 111.76 182.227 131.742C198.68 150.545 208.526 173.797 213.815 197.365C188.583 164.348 153.707 149.242 104.833 149.242H103.833V150.242V189.169L35.6642 121L103.833 52.8309V90.75Z" fill="#D9D9D9" stroke="#1C274C" stroke-width="2"/>
</g>
</g>
<defs>
<filter id="filter0_d_94_26" x="0" y="0" width="316" height="409" filterUnits="userSpaceOnUse" color-interpolation-filters="sRGB">
<feFlood flood-opacity="0" result="BackgroundImageFix"/>
<feColorMatrix in="SourceAlpha" type="matrix" values="0 0 0 0 0 0 0 0 0 0 0 0 0 0 0 0 0 0 127 0" result="hardAlpha"/>
<feOffset dy="4"/>
<feGaussianBlur stdDeviation="2"/>
<feComposite in2="hardAlpha" operator="out"/>
<feColorMatrix type="matrix" values="0 0 0 0 0 0 0 0 0 0 0 0 0 0 0 0 0 0 0.25 0"/>
<feBlend mode="normal" in2="BackgroundImageFix" result="effect1_dropShadow_94_26"/>
<feBlend mode="normal" in="SourceGraphic" in2="effect1_dropShadow_94_26" result="shape"/>
</filter>
<clipPath id="clip0_94_26">
<rect width="242" height="242" fill="white" transform="translate(4)"/>
</clipPath>
</defs>
</svg>
