<svg width="86" height="24" viewBox="0 0 86 24" fill="none" xmlns="http://www.w3.org/2000/svg">
<path d="M31 17.27L37.18 21L35.54 13.97L41 9.24L33.81 8.62L31 2L28.19 8.62L21 9.24L26.45 13.97L24.82 21L31 17.27Z" fill="#D2BF1D"/>
<path d="M51 17.27L57.18 21L55.54 13.97L61 9.24L53.81 8.62L51 2L48.19 8.62L41 9.24L46.45 13.97L44.82 21L51 17.27Z" fill="#D2BF1D"/>
<path d="M72 15.39L68.24 17.66L69.23 13.38L65.91 10.5L70.29 10.13L72 6.09L73.71 10.13L78.09 10.5L74.77 13.38L75.76 17.66M82 9.24L74.81 8.63L72 2L69.19 8.63L62 9.24L67.45 13.97L65.82 21L72 17.27L78.18 21L76.54 13.97L82 9.24Z" fill="#1C274C" fill-opacity="0.8"/>
<path d="M12 17.27L18.18 21L16.54 13.97L22 9.24L14.81 8.62L12 2L9.19 8.62L2 9.24L7.45 13.97L5.82 21L12 17.27Z" fill="#D2BF1D"/>
</svg>
