<svg width="73" height="37" viewBox="0 0 73 37" fill="none" xmlns="http://www.w3.org/2000/svg">
<rect x="0.5" y="0.5" width="72" height="36" rx="18" fill="#7C7C7C" stroke="#1C274C"/>
<path d="M44.7282 22.8766C45.6275 24.4725 46.9034 25.8267 48.4525 26.8295C50.0017 27.8323 51.7806 28.4555 53.6453 28.6487C55.5099 28.8419 57.4079 28.5996 59.1855 27.9415C60.9632 27.2834 62.5705 26.228 63.8775 24.8606C61.3746 25.4166 58.7803 25.179 56.4719 24.1822C54.1634 23.1854 52.2613 21.4815 51.0423 19.3183C49.8232 17.1551 49.3507 14.6455 49.6936 12.1546C50.0364 9.66361 51.1767 7.32124 52.9486 5.46817C51.1021 5.87799 49.3667 6.70634 47.8831 7.88616C46.3995 9.06598 45.2093 10.5641 44.4088 12.2593C43.6084 13.9544 43.2202 15.7989 43.2757 17.6435C43.3311 19.488 43.8288 21.2808 44.7282 22.8766Z" fill="#F8E32A"/>
<g clip-path="url(#clip0_101_97)">
<path d="M8.86875 26.4763L10.455 28.0625L12.48 26.0487L10.8825 24.4513M18.375 11.75C14.6513 11.75 11.625 14.7763 11.625 18.5C11.625 22.2237 14.6513 25.25 18.375 25.25C22.0987 25.25 25.125 22.2237 25.125 18.5C25.125 14.765 22.0987 11.75 18.375 11.75ZM27.375 19.625H30.75V17.375H27.375M24.27 26.0487L26.295 28.0625L27.8813 26.4763L25.8675 24.4513M27.8813 10.625L26.295 9.05L24.27 11.0637L25.8675 12.6612M19.5 6.125H17.25V9.5H19.5M12.48 11.0637L10.455 9.05L8.86875 10.625L10.8825 12.6612L12.48 11.0637ZM6 19.625H9.375V17.375H6M19.5 27.5H17.25V30.875H19.5" fill="#F8E32A"/>
<circle cx="19.5" cy="18.5" r="13.5" fill="#D9D9D9"/>
</g>
<defs>
<clipPath id="clip0_101_97">
<rect width="27" height="27" fill="white" transform="translate(6 5)"/>
</clipPath>
</defs>
</svg>
