<svg width="35" height="35" viewBox="0 0 35 35" fill="none" xmlns="http://www.w3.org/2000/svg">
<path d="M33.1598 27.6532H33.335L34.0188 19.6062L35 17.5221L34.6968 13.0443C34.7706 12.1144 33.9542 11.591 33.4458 11.3765L32.5199 13.6653L32.2697 11.6878L32.4242 11.5656L32.3827 11.0277L32.7644 10.8934C32.7251 10.838 32.7009 10.7849 32.7009 10.7394C32.7009 10.6138 32.7009 10.4563 32.7009 10.2419C32.8531 10.0626 32.9684 9.69884 33.0364 9.28718C33.1321 9.25027 33.1944 9.19497 33.2763 8.76205C33.3328 8.45648 33.2428 8.26794 33.2221 8.26794C33.2601 7.99061 33.312 7.44237 33.176 7.16736C33.176 7.16736 33.2694 6.98867 33.2694 6.75057C32.8774 6.80991 31.6252 5.95665 31.2516 6.65138C30.7085 6.59136 30.3857 7.40374 30.6312 8.26794C30.6312 8.26794 30.3269 8.25297 30.449 8.70435C30.562 9.12927 30.6543 9.22607 30.8134 9.28718C30.8826 9.69884 30.9967 10.0626 31.149 10.2419C31.149 10.4564 31.149 10.6138 31.149 10.7394C31.149 10.7665 31.1409 10.7953 31.1271 10.8265L31.6206 11.0012L31.5768 11.5655L31.7313 11.6878L31.4742 13.7275L30.3096 11.4099C30.1447 11.4722 29.9372 11.5551 29.7239 11.6601L29.3318 14.575L29.1623 12.0631C29.258 10.8525 28.1142 10.2056 27.5136 9.9813C27.4766 9.96749 27.4375 9.94958 27.3959 9.92709L26.432 12.3115L26.1599 10.1612L26.3283 10.0274L26.2821 9.44338L26.7318 9.28479C26.7295 9.27331 26.7271 9.2623 26.7271 9.25136C26.7271 9.09858 26.7271 8.90717 26.7271 8.64488C26.9117 8.4264 27.0523 7.98247 27.1365 7.48038C27.253 7.43539 27.3291 7.36738 27.4282 6.83985C27.4986 6.46688 27.389 6.2374 27.3613 6.2374C27.4086 5.89902 27.4732 5.23026 27.3059 4.89468C27.3059 4.89468 27.4201 4.67675 27.4201 4.38622C26.9416 4.45828 25.4138 3.41764 24.9573 4.26516C24.2966 4.19195 23.9023 5.18357 24.202 6.2374C24.202 6.2374 23.8308 6.21839 23.9794 6.77012C24.1178 7.28781 24.2296 7.406 24.4245 7.48038C24.5087 7.98254 24.6482 8.4264 24.8338 8.64488C24.8338 8.87607 24.8338 9.05134 24.8338 9.1949L25.4529 9.4146L25.4057 10.0274L25.5729 10.1612L25.2926 12.379L24.0808 9.96633C24.0693 9.97153 24.0578 9.97672 24.0474 9.98137C23.7338 10.0979 23.0776 10.3296 22.5427 10.6951L22.0088 14.6649L21.7621 11.0156V11.0151C21.7714 10.8998 21.7668 10.7885 21.7517 10.6825C21.6007 9.50812 20.1629 8.85262 19.4907 8.59552L18.1486 11.4475L17.8165 8.81974L18.0206 8.65718L17.9629 7.90892L18.5164 7.71287C18.5164 7.53534 18.5164 7.31337 18.5164 7.01068C18.7331 6.75474 18.898 6.23466 18.996 5.64554C19.2244 5.55961 19.3547 5.42064 19.5184 4.81361C19.6913 4.16734 19.2566 4.18983 19.2566 4.18983C19.6083 2.95437 19.146 1.79383 18.3711 1.87914C17.8361 0.88643 16.0466 2.10569 15.4863 2.02092C15.4863 2.36108 15.62 2.61647 15.62 2.61647C15.4252 3.00913 15.5001 3.79375 15.5554 4.18983C15.5232 4.18928 15.13 4.19386 15.2972 4.81361C15.461 5.42064 15.59 5.55961 15.8195 5.64554C15.9175 6.23466 16.0812 6.75474 16.298 7.01068C16.298 7.31337 16.298 7.53534 16.298 7.71287L16.9518 7.94406L16.8965 8.65718L17.1017 8.81974L16.7477 11.6182L15.3249 8.59552C14.5904 8.87511 12.945 9.63035 13.0534 11.0152L12.8689 13.7478L12.4585 10.6952C11.9235 10.3297 11.2663 10.0979 10.9538 9.98144C10.9423 9.97679 10.9307 9.9716 10.9192 9.9664L9.70737 12.3791L9.4271 10.1612L9.59431 10.0274L9.547 9.41467L10.1661 9.19496C10.1661 9.05141 10.1661 8.87614 10.1661 8.64495C10.3506 8.42647 10.4924 7.98254 10.5755 7.48044C10.7703 7.40607 10.8821 7.28788 11.0217 6.77019C11.1692 6.21846 10.798 6.23747 10.798 6.23747C11.0977 5.18364 10.7035 4.19202 10.0427 4.26523C9.58617 3.41771 8.05841 4.45834 7.57989 4.38629C7.57989 4.67682 7.69405 4.89475 7.69405 4.89475C7.52808 5.23033 7.59145 5.89909 7.63875 6.23747C7.61106 6.23747 7.50148 6.46695 7.57189 6.83992C7.67218 7.36745 7.7471 7.43546 7.86475 7.48044C7.94773 7.98261 8.08726 8.42647 8.27292 8.64495C8.27292 8.90731 8.27292 9.09871 8.27292 9.25143C8.27292 9.26237 8.2706 9.2733 8.26943 9.28486L8.71801 9.44345L8.67193 10.0274L8.84023 10.1612L8.56926 12.3116L7.60423 9.92716C7.56267 9.94965 7.52233 9.96756 7.48658 9.98137C6.88591 10.2057 5.74321 10.8525 5.83892 12.0632L5.66829 14.5802L5.27509 11.6602C5.06297 11.5552 4.85543 11.4722 4.69055 11.4099L3.52598 13.7281L3.26881 11.6878L3.4233 11.5655L3.37948 11.0012L3.87413 10.8265C3.85916 10.7953 3.85103 10.7665 3.85103 10.7394C3.85103 10.6138 3.85103 10.4563 3.85103 10.2419C4.0021 10.0626 4.11858 9.69884 4.1866 9.28718C4.3469 9.22607 4.43796 9.12927 4.55205 8.70435C4.67311 8.25297 4.36987 8.26794 4.36987 8.26794C4.61549 7.40374 4.29146 6.59143 3.74958 6.65138C3.37593 5.95665 2.12263 6.80991 1.73059 6.75057C1.73059 6.98867 1.82396 7.16736 1.82396 7.16736C1.68793 7.4423 1.73988 7.99061 1.77905 8.26794C1.75718 8.26794 1.66722 8.45648 1.72484 8.76205C1.80558 9.19503 1.86785 9.25034 1.96355 9.28718C2.03273 9.69884 2.14689 10.0626 2.29906 10.2419C2.29906 10.4564 2.29906 10.6138 2.29906 10.7394C2.29906 10.7849 2.27603 10.838 2.23686 10.8934L2.61734 11.0277L2.57469 11.5656L2.72918 11.6878L2.48021 13.6642L1.55429 11.3766C1.04583 11.5911 0.229482 12.1145 0.30208 13.0444L0 17.5221L0.98123 19.6062L1.66612 27.6532H1.84133L1.83791 27.7765L0.79208 28.9745L1.1403 29.4098L3.23189 28.7116V27.6532H3.3345L3.34954 21.6811L4.53947 27.6532H4.82077L4.83226 27.7292L4.62937 28.7727L5.05832 29.3965L5.88383 29.3342L6.20778 28.6643L6.10976 27.6531H6.20778L5.71778 19.6061L6.0833 18.8302L6.66559 20.0673L7.50039 29.8836H7.71367L7.71019 30.0341L6.43501 31.495L6.86048 32.0265L9.41097 31.1738V29.8836H9.53545L9.55507 22.5983L11.0067 29.8836H11.3492L11.3643 29.9764L11.1164 31.25L11.6387 32.0103L12.6464 31.9337L13.0419 31.1167L12.922 29.8835H13.0419L12.4435 20.0673L13.1572 18.5516L14.0231 20.3929V30.9678H14.2849L14.2837 31.0232L12.6913 32.8484L13.2217 33.512L16.4075 32.4472V30.9678L17.4072 23.3585L18.4079 30.9678H18.5106V32.4472L21.6952 33.512L22.2268 32.8484L20.6333 31.0232L20.6321 30.9678H20.7924V20.3931L21.7505 18.3557L22.5576 20.0674L21.9592 29.8837H22.0791L21.9592 31.1169L22.3535 31.9338L23.3613 32.0105L23.8848 31.2501L23.6357 29.9766L23.6507 29.8837H23.9932L25.446 22.5984L25.4644 29.8837H25.5889V31.1739L28.1405 32.0267L28.5649 31.4951L27.2897 30.0343L27.2862 29.8837H27.4995L28.3343 20.0675L28.9166 18.8303L29.2821 19.6062L28.7921 27.6532H28.8901L28.7921 28.6645L29.116 29.3343L29.9415 29.3966L30.3705 28.7729L30.1676 27.7294L30.1791 27.6533H30.4605L31.6503 21.6812L31.6665 27.6533H31.7691V28.7118L33.8596 29.4099L34.2078 28.9747L33.162 27.7767L33.1598 27.6532Z" fill="#1C274C"/>
</svg>
