<svg width="61" height="13" viewBox="0 0 61 13" fill="none" xmlns="http://www.w3.org/2000/svg">
<g clip-path="url(#clip0_184_16)">
<path d="M6.5 12.5C9.81371 12.5 12.5 9.81371 12.5 6.5C12.5 3.18629 9.81371 0.5 6.5 0.5C3.18629 0.5 0.5 3.18629 0.5 6.5C0.5 9.81371 3.18629 12.5 6.5 12.5Z" fill="#1C274C" fill-opacity="0.5" stroke="#1C274C"/>
<path d="M54.5 12.5C57.8137 12.5 60.5 9.81371 60.5 6.5C60.5 3.18629 57.8137 0.5 54.5 0.5C51.1863 0.5 48.5 3.18629 48.5 6.5C48.5 9.81371 51.1863 12.5 54.5 12.5Z" fill="#1C274C" fill-opacity="0.5" stroke="#1C274C"/>
<path d="M30.5 12.5C33.8137 12.5 36.5 9.81371 36.5 6.5C36.5 3.18629 33.8137 0.5 30.5 0.5C27.1863 0.5 24.5 3.18629 24.5 6.5C24.5 9.81371 27.1863 12.5 30.5 12.5Z" fill="#1C274C" stroke="#1C274C"/>
</g>
<defs>
<clipPath id="clip0_184_16">
<rect width="61" height="13" fill="white"/>
</clipPath>
</defs>
</svg>
