<svg width="198" height="55" viewBox="0 0 198 55" fill="none" xmlns="http://www.w3.org/2000/svg">
<path d="M27.4997 39.5771L41.6622 48.125L37.9038 32.0146L50.4163 21.175L33.9393 19.7542L27.4997 4.58337L21.0601 19.7542L4.58301 21.175L17.0726 32.0146L13.3372 48.125L27.4997 39.5771Z" fill="#D2BF1D"/>
<path d="M73.4997 39.5771L87.6622 48.125L83.9038 32.0146L96.4163 21.175L79.9393 19.7542L73.4997 4.58337L67.0601 19.7542L50.583 21.175L63.0726 32.0146L59.3372 48.125L73.4997 39.5771Z" fill="#D2BF1D"/>
<path d="M119.917 35.2688L111.3 40.4709L113.569 30.6625L105.96 24.0625L115.998 23.2146L119.917 13.9563L123.835 23.2146L133.873 24.0625L126.265 30.6625L128.533 40.4709M142.833 21.175L126.356 19.7771L119.917 4.58337L113.477 19.7771L97 21.175L109.49 32.0146L105.754 48.125L119.917 39.5771L134.079 48.125L130.321 32.0146L142.833 21.175Z" fill="#898989"/>
<path d="M165.917 35.2688L157.3 40.4709L159.569 30.6625L151.96 24.0625L161.998 23.2146L165.917 13.9563L169.835 23.2146L179.873 24.0625L172.265 30.6625L174.533 40.4709M188.833 21.175L172.356 19.7771L165.917 4.58337L159.477 19.7771L143 21.175L155.49 32.0146L151.754 48.125L165.917 39.5771L180.079 48.125L176.321 32.0146L188.833 21.175Z" fill="#898989"/>
</svg>
