<svg width="292" height="292" viewBox="0 0 292 292" fill="none" xmlns="http://www.w3.org/2000/svg">
<path d="M163.587 263.252L163.799 263.705L163.587 263.252C152.423 268.471 139.577 268.471 128.413 263.252L128.236 263.631L128.413 263.252C104.301 251.982 84.4866 230.572 70.6974 205.182C56.9092 179.795 49.1667 150.466 49.1667 123.41C49.1667 68.9593 92.5287 24.8333 146 24.8333C199.472 24.8333 242.833 68.9593 242.833 123.41C242.833 150.466 235.091 179.795 221.303 205.182C207.514 230.572 187.7 251.982 163.587 263.252ZM146 170.833C173.154 170.833 195.167 148.82 195.167 121.667C195.167 94.5127 173.154 72.5 146 72.5C118.846 72.5 96.8333 94.5127 96.8333 121.667C96.8333 148.82 118.846 170.833 146 170.833Z" fill="#D9D9D9" stroke="#1C274C"/>
<path fill-rule="evenodd" clip-rule="evenodd" d="M146 170.333C172.877 170.333 194.667 148.544 194.667 121.667C194.667 94.7888 172.877 73 146 73C119.122 73 97.3333 94.7888 97.3333 121.667C97.3333 148.544 119.122 170.333 146 170.333ZM155.125 103.417C155.125 98.3771 151.039 94.2917 146 94.2917C140.961 94.2917 136.875 98.3771 136.875 103.417V112.542H127.75C122.711 112.542 118.625 116.627 118.625 121.667C118.625 126.706 122.711 130.792 127.75 130.792H136.875V139.917C136.875 144.956 140.961 149.042 146 149.042C151.039 149.042 155.125 144.956 155.125 139.917V130.792H164.25C169.289 130.792 173.375 126.706 173.375 121.667C173.375 116.627 169.289 112.542 164.25 112.542H155.125V103.417Z" fill="#1C274C"/>
</svg>
