<svg width="42" height="42" viewBox="0 0 42 42" fill="none" xmlns="http://www.w3.org/2000/svg">
<path d="M21.07 3.5C11.515 3.5 3.72749 11.2875 3.72749 20.8425C3.72749 23.905 4.53249 26.88 6.03749 29.505L3.58749 38.5L12.775 36.085C15.3125 37.4675 18.165 38.2025 21.07 38.2025C30.625 38.2025 38.4125 30.415 38.4125 20.86C38.4125 16.2225 36.61 11.865 33.3375 8.5925C30.065 5.3025 25.7075 3.5 21.07 3.5ZM21.0875 6.4225C24.9375 6.4225 28.5425 7.9275 31.2725 10.6575C33.985 13.3875 35.49 17.01 35.49 20.86C35.49 28.805 29.015 35.2625 21.07 35.2625C18.48 35.2625 15.9425 34.58 13.7375 33.25L13.2125 32.9525L7.75249 34.3875L9.20499 29.0675L8.85499 28.5075C7.41999 26.25 6.64999 23.5725 6.64999 20.8425C6.66749 12.8975 13.125 6.4225 21.0875 6.4225ZM14.9275 12.8275C14.6475 12.8275 14.175 12.9325 13.7725 13.37C13.3875 13.8075 12.25 14.875 12.25 16.9925C12.25 19.1275 13.8075 21.175 14 21.4725C14.245 21.77 17.08 26.145 21.4375 28C22.47 28.4725 23.275 28.735 23.905 28.9275C24.9375 29.26 25.8825 29.2075 26.635 29.1025C27.475 28.98 29.19 28.0525 29.5575 27.0375C29.925 26.0225 29.925 25.165 29.82 24.9725C29.6975 24.7975 29.4175 24.6925 28.98 24.5C28.5425 24.255 26.4075 23.205 26.0225 23.065C25.62 22.925 25.375 22.855 25.0425 23.275C24.7625 23.7125 23.9225 24.6925 23.6775 24.9725C23.415 25.27 23.17 25.305 22.75 25.095C22.295 24.8675 20.895 24.4125 19.25 22.9425C17.955 21.7875 17.0975 20.37 16.835 19.9325C16.625 19.5125 16.8175 19.25 17.0275 19.0575C17.22 18.865 17.5 18.55 17.675 18.2875C17.9025 18.0425 17.9725 17.85 18.1125 17.57C18.2525 17.2725 18.1825 17.0275 18.0775 16.8175C17.9725 16.625 17.0975 14.455 16.73 13.5975C16.38 12.7575 16.03 12.8625 15.75 12.845C15.505 12.845 15.225 12.8275 14.9275 12.8275Z" fill="#1C274C"/>
</svg>
